<svg width="113" height="119" viewBox="0 0 113 119" fill="none" xmlns="http://www.w3.org/2000/svg">
<path d="M59.235 32.0471C64.3583 33.2107 68.3621 35.6063 71.2465 39.2341C72.1397 36.5334 74.2497 35.5608 77.5765 36.3163C80.9699 37.087 82.3978 38.6556 81.8603 41.0223C81.6811 41.8112 81.3465 42.6685 80.8564 43.5942C80.388 44.7322 80.0344 45.8272 79.7955 46.879C79.7507 47.0763 79.6646 47.6097 79.537 48.4795C79.3429 49.3341 79.1712 50.0902 79.0219 50.7476L78.9323 51.142C78.141 54.6263 75.9822 55.9681 72.4557 55.1672C69.9274 54.593 68.0154 52.8452 66.7197 49.924C65.1443 46.3861 62.7264 44.2469 59.4662 43.5065C55.6071 42.6301 53.3789 43.5067 52.7817 46.1364C52.4682 47.5169 52.8763 48.6466 54.0061 49.5254C55.1509 50.3384 58.3134 51.8171 63.4938 53.9615C67.706 55.7477 70.7315 57.3681 72.5701 58.8226C74.4753 60.2923 75.8843 62.0986 76.7969 64.2416C77.9229 66.9861 78.1275 69.9361 77.4108 73.0917C76.2761 78.0881 73.3652 81.8169 68.6782 84.2782C64.0576 86.7546 58.8198 87.3279 52.9646 85.9982C47.1094 84.6684 42.2046 81.6188 38.2501 76.8493C37.5185 80.0706 35.4893 81.3035 32.1625 80.548C28.5696 79.732 27.1016 77.8777 27.7585 74.9851C27.9078 74.3277 28.2058 73.3238 28.6524 71.9734C29.099 70.6231 29.397 69.6192 29.5463 68.9618C29.6806 68.3701 29.8157 67.4675 29.9513 66.2539C30.1535 65.0554 30.3218 64.1604 30.4562 63.5687C31.1281 60.6103 33.327 59.5542 37.053 60.4004C38.8495 60.8084 40.1538 61.3812 40.9658 62.1187C41.7779 62.8561 42.5445 64.1018 43.2657 65.8556C44.3767 68.6658 45.5412 70.6241 46.7593 71.7303C47.9923 72.7708 49.9728 73.6008 52.7008 74.2203C57.4914 75.3083 60.2226 74.3731 60.8945 71.4147C61.3573 69.3767 59.7488 67.5251 56.0688 65.8597L50.549 63.3618C46.0489 61.3028 42.9128 59.5536 41.1406 58.1141C39.435 56.6898 38.2556 54.7973 37.6022 52.4367C36.9638 50.0103 36.9582 47.4166 37.5852 44.6554C38.705 39.7248 41.2459 36.0848 45.2079 33.7353C49.2364 31.401 53.9121 30.8383 59.235 32.0471Z" fill="url(#paint0_linear_2_93)"/>
<path d="M45.7852 103.262H15.2617V72.7383" stroke="black" stroke-width="4" stroke-linecap="round" stroke-linejoin="round"/>
<path d="M15.7383 45.7852V15.2617H46.2617" stroke="black" stroke-width="4" stroke-linecap="round" stroke-linejoin="round"/>
<path d="M97.2617 73.2148V103.738H66.7383" stroke="black" stroke-width="4" stroke-linecap="round" stroke-linejoin="round"/>
<path d="M67.2148 15.7383H97.7383V46.2617" stroke="black" stroke-width="4" stroke-linecap="round" stroke-linejoin="round"/>
<defs>
<linearGradient id="paint0_linear_2_93" x1="61.2496" y1="34.2675" x2="88.3607" y2="62.4736" gradientUnits="userSpaceOnUse">
<stop stop-color="#2B71DA"/>
<stop offset="1" stop-color="#4016EC"/>
</linearGradient>
</defs>
</svg>
